<svg xmlns="http://www.w3.org/2000/svg" viewBox="0 0 96 96" fill="none">
  <path fill-rule="evenodd" clip-rule="evenodd" d="M47.4637 95.0858C61.5999 95.0858 74.3002 88.9583 83.0358 79.2231C78.9722 75.7035 72.8482 75.4897 68.522 78.9685L67.6955 79.6332C59.7744 86.0029 48.2324 85.0622 41.455 77.4946C37.7586 73.3671 31.4281 72.9458 27.2136 76.5466L17.6845 84.6879C25.8461 91.1949 36.1989 95.0858 47.4637 95.0858ZM62.9314 72.0639C70.4761 65.9967 81.0809 66.2144 88.3372 72.0742C92.6745 64.9123 95.1699 56.5181 95.1699 47.5428C95.1699 37.5699 92.0889 28.3143 86.8233 20.6697C83.429 19.9493 79.7497 20.7907 76.9568 23.2572L76.1619 23.9592C68.5441 30.6866 56.971 30.2777 49.8503 23.0299C45.9666 19.0769 39.6234 18.9471 35.5802 22.7379L24.4912 33.1346L18.3908 26.6727L29.48 16.2759C37.0538 9.17494 48.9365 9.4181 56.2115 16.823C60.0127 20.6922 66.1909 20.9104 70.2575 17.3191L71.0523 16.6171C73.5207 14.4371 76.3768 12.9675 79.367 12.1946C70.9152 4.61362 59.7301 0 47.4637 0C23.2461 0 3.24332 17.9834 0.167536 41.2811C7.52337 37.7634 16.5967 39.117 22.5944 45.2378C26.3807 49.1019 32.4773 49.5097 36.7479 46.1847L42.9481 41.3575C50.74 35.2908 61.7551 35.5844 69.2105 42.0579L81.2815 52.5384L75.4333 59.2278L63.3625 48.7471C59.1231 45.0663 52.8598 44.8992 48.4287 48.349L42.2288 53.1761C34.3825 59.285 23.1813 58.5357 16.225 51.4363C12.1798 47.3081 5.56388 47.164 1.34169 51.1124L0 52.3669C1.00409 62.297 5.07433 71.3251 11.2529 78.4968L21.4192 69.8109C29.3139 63.0658 41.1726 63.8553 48.097 71.5869C51.715 75.6268 57.8763 76.1289 62.1049 72.7285L62.9314 72.0639Z" fill="#9E1F19"/>
</svg>
